<?xml version="1.0" encoding="utf-8"?>
<svg xmlns="http://www.w3.org/2000/svg" xmlns:xlink="http://www.w3.org/1999/xlink" width="600" height="400" viewBox="0 0 2400 1600">
<defs>
  <clipPath id="clip150">
    <rect x="0" y="0" width="2400" height="1600"/>
  </clipPath>
</defs>
<path clip-path="url(#clip150)" d="M0 1600 L2400 1600 L2400 0 L0 0  Z" fill="#ffffff" fill-rule="evenodd" fill-opacity="1"/>
<defs>
  <clipPath id="clip151">
    <rect x="480" y="0" width="1681" height="1600"/>
  </clipPath>
</defs>
<path clip-path="url(#clip150)" d="M47.2441 752.756 L2352.76 752.756 L2352.76 123.472 L47.2441 123.472  Z" fill="#ffffff" fill-rule="evenodd" fill-opacity="1"/>
<defs>
  <clipPath id="clip152">
    <rect x="47" y="123" width="2307" height="630"/>
  </clipPath>
</defs>
<polyline clip-path="url(#clip150)" style="stroke:#000000; stroke-linecap:round; stroke-linejoin:round; stroke-width:4; stroke-opacity:1; fill:none" points="47.2441,752.756 2352.76,752.756 "/>
<polyline clip-path="url(#clip150)" style="stroke:#000000; stroke-linecap:round; stroke-linejoin:round; stroke-width:4; stroke-opacity:1; fill:none" points="47.2441,752.756 47.2441,123.472 "/>
<path clip-path="url(#clip150)" d="M1068.1 28.9478 L1068.1 35.9153 Q1064.94 34.1734 1061.74 33.3227 Q1058.58 32.4315 1055.34 32.4315 Q1048.09 32.4315 1044.08 37.0496 Q1040.07 41.6271 1040.07 49.9314 Q1040.07 58.2358 1044.08 62.8538 Q1048.09 67.4314 1055.34 67.4314 Q1058.58 67.4314 1061.74 66.5807 Q1064.94 65.6895 1068.1 63.9476 L1068.1 70.8341 Q1064.98 72.2924 1061.62 73.0216 Q1058.3 73.7508 1054.53 73.7508 Q1044.28 73.7508 1038.25 67.3098 Q1032.21 60.8689 1032.21 49.9314 Q1032.21 38.832 1038.29 32.472 Q1044.4 26.1121 1055.02 26.1121 Q1058.46 26.1121 1061.74 26.8413 Q1065.02 27.5299 1068.1 28.9478 Z" fill="#000000" fill-rule="nonzero" fill-opacity="1" /><path clip-path="url(#clip150)" d="M1118.78 45.1919 L1118.78 72.576 L1111.33 72.576 L1111.33 45.4349 Q1111.33 38.994 1108.81 35.7938 Q1106.3 32.5936 1101.28 32.5936 Q1095.24 32.5936 1091.76 36.4419 Q1088.28 40.2903 1088.28 46.9338 L1088.28 72.576 L1080.78 72.576 L1080.78 9.54393 L1088.28 9.54393 L1088.28 34.2544 Q1090.95 30.163 1094.55 28.1376 Q1098.2 26.1121 1102.94 26.1121 Q1110.76 26.1121 1114.77 30.9732 Q1118.78 35.7938 1118.78 45.1919 Z" fill="#000000" fill-rule="nonzero" fill-opacity="1" /><path clip-path="url(#clip150)" d="M1151.23 32.4315 Q1145.23 32.4315 1141.75 37.1306 Q1138.26 41.7891 1138.26 49.9314 Q1138.26 58.0738 1141.71 62.7728 Q1145.19 67.4314 1151.23 67.4314 Q1157.18 67.4314 1160.67 62.7323 Q1164.15 58.0333 1164.15 49.9314 Q1164.15 41.8701 1160.67 37.1711 Q1157.18 32.4315 1151.23 32.4315 M1151.23 26.1121 Q1160.95 26.1121 1166.5 32.4315 Q1172.05 38.7509 1172.05 49.9314 Q1172.05 61.0714 1166.5 67.4314 Q1160.95 73.7508 1151.23 73.7508 Q1141.46 73.7508 1135.91 67.4314 Q1130.41 61.0714 1130.41 49.9314 Q1130.41 38.7509 1135.91 32.4315 Q1141.46 26.1121 1151.23 26.1121 Z" fill="#000000" fill-rule="nonzero" fill-opacity="1" /><path clip-path="url(#clip150)" d="M1184.4 27.2059 L1191.86 27.2059 L1191.86 72.576 L1184.4 72.576 L1184.4 27.2059 M1184.4 9.54393 L1191.86 9.54393 L1191.86 18.9825 L1184.4 18.9825 L1184.4 9.54393 Z" fill="#000000" fill-rule="nonzero" fill-opacity="1" /><path clip-path="url(#clip150)" d="M1240.1 28.9478 L1240.1 35.9153 Q1236.94 34.1734 1233.74 33.3227 Q1230.58 32.4315 1227.34 32.4315 Q1220.09 32.4315 1216.08 37.0496 Q1212.07 41.6271 1212.07 49.9314 Q1212.07 58.2358 1216.08 62.8538 Q1220.09 67.4314 1227.34 67.4314 Q1230.58 67.4314 1233.74 66.5807 Q1236.94 65.6895 1240.1 63.9476 L1240.1 70.8341 Q1236.98 72.2924 1233.62 73.0216 Q1230.3 73.7508 1226.53 73.7508 Q1216.28 73.7508 1210.25 67.3098 Q1204.21 60.8689 1204.21 49.9314 Q1204.21 38.832 1210.29 32.472 Q1216.41 26.1121 1227.02 26.1121 Q1230.46 26.1121 1233.74 26.8413 Q1237.03 27.5299 1240.1 28.9478 Z" fill="#000000" fill-rule="nonzero" fill-opacity="1" /><path clip-path="url(#clip150)" d="M1291.87 48.0275 L1291.87 51.6733 L1257.6 51.6733 Q1258.09 59.3701 1262.22 63.421 Q1266.39 67.4314 1273.81 67.4314 Q1278.1 67.4314 1282.11 66.3781 Q1286.16 65.3249 1290.13 63.2184 L1290.13 70.267 Q1286.12 71.9684 1281.91 72.8596 Q1277.7 73.7508 1273.36 73.7508 Q1262.51 73.7508 1256.15 67.4314 Q1249.83 61.1119 1249.83 50.3365 Q1249.83 39.1965 1255.82 32.6746 Q1261.86 26.1121 1272.07 26.1121 Q1281.22 26.1121 1286.53 32.0264 Q1291.87 37.9003 1291.87 48.0275 M1284.42 45.84 Q1284.34 39.7232 1280.98 36.0774 Q1277.66 32.4315 1272.15 32.4315 Q1265.91 32.4315 1262.14 35.9558 Q1258.41 39.4801 1257.85 45.8805 L1284.42 45.84 Z" fill="#000000" fill-rule="nonzero" fill-opacity="1" /><path clip-path="url(#clip150)" d="M1332.95 65.6895 L1346.32 65.6895 L1346.32 19.5497 L1331.78 22.4663 L1331.78 15.0127 L1346.24 12.096 L1354.42 12.096 L1354.42 65.6895 L1367.79 65.6895 L1367.79 72.576 L1332.95 72.576 L1332.95 65.6895 Z" fill="#000000" fill-rule="nonzero" fill-opacity="1" /><polyline clip-path="url(#clip152)" style="stroke:#000000; stroke-linecap:round; stroke-linejoin:round; stroke-width:4; stroke-opacity:1; fill:none" points="508.346,752.756 508.346,563.971 "/>
<polyline clip-path="url(#clip152)" style="stroke:#000000; stroke-linecap:round; stroke-linejoin:round; stroke-width:4; stroke-opacity:1; fill:none" points="47.2441,563.971 508.346,563.971 "/>
<polyline clip-path="url(#clip152)" style="stroke:#000000; stroke-linecap:round; stroke-linejoin:round; stroke-width:4; stroke-opacity:1; fill:none" points="47.2441,752.756 47.2441,563.971 "/>
<polyline clip-path="url(#clip152)" style="stroke:#000000; stroke-linecap:round; stroke-linejoin:round; stroke-width:3; stroke-opacity:1; fill:none" points="508.346,724.373 510.652,688.707 512.957,688.081 515.263,645.409 517.569,605.766 519.874,611.455 522.18,604.261 524.485,601.603 526.791,586.732 529.096,585.315 531.402,570.326 533.707,578.489 536.013,595.536 538.318,615.457 540.624,595.824 542.929,586.958 545.235,604.142 547.54,576.186 549.846,594.225 552.151,569.282 554.457,596.307 556.762,567.493 559.068,583.37 561.373,606.611 563.679,631.912 565.984,620.015 568.29,584.709 570.595,569.449 572.901,533.358 575.206,538.429 577.512,545.133 579.817,554.854 582.123,561.596 584.428,526.322 586.734,502.559 589.039,516.433 591.345,511.931 593.65,502.05 595.956,488.352 598.261,489.15 600.567,483.868 602.872,488.787 605.178,498.173 607.483,516.064 609.789,544.871 612.094,549.32 614.4,537.843 616.706,546.47 619.011,537.878 621.317,537.444 623.622,522.359 625.928,494.644 628.233,480.164 630.539,515.518 632.844,504.034 635.15,515.281 637.455,482.579 639.761,489.022 642.066,490.972 644.372,488.054 646.677,481.786 648.983,477.791 651.288,503.194 653.594,509.159 655.899,503.098 658.205,550.088 660.51,540.289 662.816,523.569 665.121,522.886 667.427,546.66 669.732,513.72 672.038,524.112 674.343,503.238 676.649,479.834 678.954,497.642 681.26,527.35 683.565,509.521 685.871,503.088 688.176,490.88 690.482,514.736 692.787,548.774 695.093,537.118 697.398,534.745 699.704,524.986 702.009,510.733 704.315,503.081 706.62,463.396 708.926,465.204 711.231,451.36 713.537,474.645 715.843,469.211 718.148,495.638 720.454,497.549 722.759,505.41 725.065,527.029 727.37,517.006 729.676,506.416 731.981,491.67 734.287,514.136 736.592,516.425 738.898,520.043 741.203,502.744 743.509,519.031 745.814,540.967 748.12,552.318 750.425,520.083 752.731,490.14 755.036,495.816 757.342,466.25 759.647,483.407 761.953,506.356 764.258,519.7 766.564,552.292 768.869,527.348 771.175,523.842 773.48,531.407 775.786,532.825 778.091,531.329 780.397,552.182 782.702,530.744 785.008,509.542 787.313,522.207 789.619,513.348 791.924,515.033 794.23,500.651 796.535,471.458 798.841,469.397 801.146,465.215 803.452,451.657 805.757,440.141 808.063,435.577 810.369,431.281 812.674,444.33 814.98,453.253 817.285,445.633 819.591,449.304 821.896,429.953 824.202,395.647 826.507,397.196 828.813,404.405 831.118,427.509 833.424,435.834 835.729,460.459 838.035,477.209 840.34,476.789 842.646,493.561 844.951,454.605 847.257,454.982 849.562,463.802 851.868,453.212 854.173,445.88 856.479,443.521 858.784,453.87 861.09,477.679 863.395,457.763 865.701,419.767 868.006,453.034 870.312,444.086 872.617,444.233 874.923,440.704 877.228,440.548 879.534,433.011 881.839,422.759 884.145,422.82 886.45,424.419 888.756,434.747 891.061,439.12 893.367,427.334 895.672,438.675 897.978,468.583 900.283,514.184 902.589,525.393 904.894,505.736 907.2,490.196 909.506,470.097 911.811,454.639 914.117,450.4 916.422,445.231 918.728,451.609 921.033,459.529 923.339,436.389 925.644,433.757 927.95,465.934 930.255,424.587 932.561,422.928 934.866,411.542 937.172,423.582 939.477,476.282 941.783,436.627 944.088,487.715 946.394,474.825 948.699,476.391 951.005,504.615 953.31,520.635 955.616,544.365 957.921,574.123 960.227,576.452 962.532,562.672 964.838,557.065 967.143,552.477 969.449,585.785 971.754,564.13 974.06,542.49 976.365,528.792 978.671,536.312 980.976,530.299 983.282,556.216 985.587,562.94 987.893,540.065 990.198,543.362 992.504,512.715 994.809,514.928 997.115,487.489 999.42,496.702 1001.73,467.783 1004.03,482.642 1006.34,476.488 1008.64,451.246 1010.95,447.997 1013.25,474.112 1015.56,476.089 1017.86,474.177 1020.17,493.256 1022.48,486.53 1024.78,477.108 1027.09,500.741 1029.39,484.409 1031.7,417.415 1034,363.895 1036.31,357.089 1038.61,415.339 1040.92,425.235 1043.23,411.597 1045.53,435.87 1047.84,432.172 1050.14,433.907 1052.45,432.013 1054.75,404.806 1057.06,426.484 1059.36,427.352 1061.67,419.293 1063.97,429.033 1066.28,441.861 1068.59,442.066 1070.89,406.312 1073.2,414.251 1075.5,407.413 1077.81,424.845 1080.11,438.253 1082.42,414.77 1084.72,389.872 1087.03,385.624 1089.34,404.498 1091.64,445.307 1093.95,405.15 1096.25,387.892 1098.56,370.174 1100.86,358.261 1103.17,374.274 1105.47,352.279 1107.78,364.64 1110.09,374.88 1112.39,387.089 1114.7,387.851 1117,396.61 1119.31,389.495 1121.61,388.831 1123.92,379.614 1126.22,337.847 1128.53,306.279 1130.83,284.536 1133.14,265.542 1135.45,259.434 1137.75,284.386 1140.06,259.434 1142.36,275.446 1144.67,310.88 1146.97,298.66 1149.28,289.234 1151.58,283.065 1153.89,274.754 1156.2,240.539 1158.5,201.702 1160.81,204.325 1163.11,212.01 1165.42,214.609 1167.72,225.803 1170.03,214.034 1172.33,232.326 1174.64,216.873 1176.94,197.764 1179.25,192.62 1181.56,196.201 1183.86,193.05 1186.17,171.557 1188.47,211.269 1190.78,198.641 1193.08,219.031 1195.39,205.536 1197.69,191.881 1200,163.738 1202.31,167.37 1204.61,171.067 1206.92,163.005 1209.22,142.508 1211.53,132.544 1213.83,155.103 1216.14,153.469 1218.44,156.259 1220.75,184.571 1223.06,183.751 1225.36,169.537 1227.67,141.886 1229.97,132.981 1232.28,138.559 1234.58,142.07 1236.89,104.603 "/>
<polyline clip-path="url(#clip152)" style="stroke:#000000; stroke-linecap:round; stroke-linejoin:round; stroke-width:4; stroke-opacity:1; fill:none" stroke-dasharray="16, 10" points="-2258.27,123.472 4658.27,123.472 "/>
<path clip-path="url(#clip150)" d="M488.555 578.369 L480.627 599.868 L496.512 599.868 L488.555 578.369 M485.256 572.611 L491.882 572.611 L508.346 615.811 L502.27 615.811 L498.335 604.729 L478.862 604.729 L474.926 615.811 L468.763 615.811 L485.256 572.611 Z" fill="#000000" fill-rule="nonzero" fill-opacity="1" /><path clip-path="url(#clip150)" d="M35.4965 129.997 L34.2233 123.313 Q32.9213 116.455 27.7708 116.455 Q23.8935 116.455 22.1285 119.638 Q19.9005 123.631 19.9005 128.897 Q19.9005 135.263 22.0706 138.301 Q24.2697 141.397 27.7708 141.397 Q31.6481 141.397 33.7314 135.234 L35.4965 129.997 M38.4768 121.143 L41.3413 112.665 L46.0867 112.665 L40.155 130.228 L41.3124 136.565 Q41.5728 137.983 42.5856 139.169 Q43.7719 140.558 44.6978 140.558 L47.2441 140.558 L47.2441 145.072 L44.0612 145.072 Q41.3413 145.072 38.9108 142.642 Q37.7245 141.426 37.2326 138.88 Q35.9016 142.092 33.1817 144.609 Q31.9085 145.796 27.7708 145.796 Q20.9711 145.796 17.6725 141.397 Q14.2871 136.855 14.2871 128.897 Q14.2871 120.391 17.9618 116.398 Q22.0417 111.942 27.7708 111.942 Q36.7696 111.942 38.4768 121.143 Z" fill="#000000" fill-rule="nonzero" fill-opacity="1" /><path clip-path="url(#clip150)" d="M281.427 733.893 Q282.468 735.282 285.593 735.282 L288.168 735.282 L288.168 739.796 L284.957 739.796 Q279.748 739.796 277.376 737.018 Q275.003 734.183 275.003 728.048 L275.003 712.713 L262.85 712.713 L262.85 707.389 L292.74 707.389 L292.74 712.713 L280.443 712.713 L280.443 728.367 Q280.443 732.562 281.427 733.893 Z" fill="#000000" fill-rule="nonzero" fill-opacity="1" /><path clip-path="url(#clip150)" d="M47.2441 1552.76 L2352.76 1552.76 L2352.76 923.472 L47.2441 923.472  Z" fill="#ffffff" fill-rule="evenodd" fill-opacity="1"/>
<defs>
  <clipPath id="clip153">
    <rect x="47" y="923" width="2307" height="630"/>
  </clipPath>
</defs>
<polyline clip-path="url(#clip150)" style="stroke:#000000; stroke-linecap:round; stroke-linejoin:round; stroke-width:4; stroke-opacity:1; fill:none" points="47.2441,1552.76 2352.76,1552.76 "/>
<polyline clip-path="url(#clip150)" style="stroke:#000000; stroke-linecap:round; stroke-linejoin:round; stroke-width:4; stroke-opacity:1; fill:none" points="47.2441,1552.76 47.2441,923.472 "/>
<path clip-path="url(#clip150)" d="M1068.43 828.948 L1068.43 835.915 Q1065.27 834.173 1062.07 833.323 Q1058.91 832.432 1055.67 832.432 Q1048.42 832.432 1044.4 837.05 Q1040.39 841.627 1040.39 849.931 Q1040.39 858.236 1044.4 862.854 Q1048.42 867.431 1055.67 867.431 Q1058.91 867.431 1062.07 866.581 Q1065.27 865.689 1068.43 863.948 L1068.43 870.834 Q1065.31 872.292 1061.95 873.022 Q1058.62 873.751 1054.86 873.751 Q1044.61 873.751 1038.57 867.31 Q1032.54 860.869 1032.54 849.931 Q1032.54 838.832 1038.61 832.472 Q1044.73 826.112 1055.34 826.112 Q1058.79 826.112 1062.07 826.841 Q1065.35 827.53 1068.43 828.948 Z" fill="#000000" fill-rule="nonzero" fill-opacity="1" /><path clip-path="url(#clip150)" d="M1119.1 845.192 L1119.1 872.576 L1111.65 872.576 L1111.65 845.435 Q1111.65 838.994 1109.14 835.794 Q1106.63 832.594 1101.6 832.594 Q1095.57 832.594 1092.08 836.442 Q1088.6 840.29 1088.6 846.934 L1088.6 872.576 L1081.11 872.576 L1081.11 809.544 L1088.6 809.544 L1088.6 834.254 Q1091.27 830.163 1094.88 828.138 Q1098.52 826.112 1103.26 826.112 Q1111.08 826.112 1115.09 830.973 Q1119.1 835.794 1119.1 845.192 Z" fill="#000000" fill-rule="nonzero" fill-opacity="1" /><path clip-path="url(#clip150)" d="M1151.55 832.432 Q1145.56 832.432 1142.07 837.131 Q1138.59 841.789 1138.59 849.931 Q1138.59 858.074 1142.03 862.773 Q1145.52 867.431 1151.55 867.431 Q1157.51 867.431 1160.99 862.732 Q1164.47 858.033 1164.47 849.931 Q1164.47 841.87 1160.99 837.171 Q1157.51 832.432 1151.55 832.432 M1151.55 826.112 Q1161.27 826.112 1166.82 832.432 Q1172.37 838.751 1172.37 849.931 Q1172.37 861.071 1166.82 867.431 Q1161.27 873.751 1151.55 873.751 Q1141.79 873.751 1136.24 867.431 Q1130.73 861.071 1130.73 849.931 Q1130.73 838.751 1136.24 832.432 Q1141.79 826.112 1151.55 826.112 Z" fill="#000000" fill-rule="nonzero" fill-opacity="1" /><path clip-path="url(#clip150)" d="M1184.73 827.206 L1192.18 827.206 L1192.18 872.576 L1184.73 872.576 L1184.73 827.206 M1184.73 809.544 L1192.18 809.544 L1192.18 818.983 L1184.73 818.983 L1184.73 809.544 Z" fill="#000000" fill-rule="nonzero" fill-opacity="1" /><path clip-path="url(#clip150)" d="M1240.43 828.948 L1240.43 835.915 Q1237.27 834.173 1234.07 833.323 Q1230.91 832.432 1227.67 832.432 Q1220.42 832.432 1216.41 837.05 Q1212.4 841.627 1212.4 849.931 Q1212.4 858.236 1216.41 862.854 Q1220.42 867.431 1227.67 867.431 Q1230.91 867.431 1234.07 866.581 Q1237.27 865.689 1240.43 863.948 L1240.43 870.834 Q1237.31 872.292 1233.95 873.022 Q1230.62 873.751 1226.86 873.751 Q1216.61 873.751 1210.57 867.31 Q1204.54 860.869 1204.54 849.931 Q1204.54 838.832 1210.61 832.472 Q1216.73 826.112 1227.34 826.112 Q1230.79 826.112 1234.07 826.841 Q1237.35 827.53 1240.43 828.948 Z" fill="#000000" fill-rule="nonzero" fill-opacity="1" /><path clip-path="url(#clip150)" d="M1292.2 848.028 L1292.2 851.673 L1257.93 851.673 Q1258.41 859.37 1262.55 863.421 Q1266.72 867.431 1274.13 867.431 Q1278.43 867.431 1282.44 866.378 Q1286.49 865.325 1290.46 863.218 L1290.46 870.267 Q1286.45 871.968 1282.23 872.86 Q1278.02 873.751 1273.69 873.751 Q1262.83 873.751 1256.47 867.431 Q1250.15 861.112 1250.15 850.337 Q1250.15 839.197 1256.15 832.675 Q1262.18 826.112 1272.39 826.112 Q1281.54 826.112 1286.85 832.026 Q1292.2 837.9 1292.2 848.028 M1284.74 845.84 Q1284.66 839.723 1281.3 836.077 Q1277.98 832.432 1272.47 832.432 Q1266.23 832.432 1262.46 835.956 Q1258.74 839.48 1258.17 845.881 L1284.74 845.84 Z" fill="#000000" fill-rule="nonzero" fill-opacity="1" /><path clip-path="url(#clip150)" d="M1338.91 865.689 L1367.46 865.689 L1367.46 872.576 L1329.06 872.576 L1329.06 865.689 Q1333.72 860.869 1341.74 852.767 Q1349.8 844.625 1351.87 842.275 Q1355.8 837.86 1357.34 834.822 Q1358.92 831.743 1358.92 828.786 Q1358.92 823.965 1355.51 820.927 Q1352.15 817.889 1346.72 817.889 Q1342.88 817.889 1338.58 819.226 Q1334.33 820.562 1329.47 823.276 L1329.47 815.013 Q1334.41 813.028 1338.7 812.015 Q1343 811.002 1346.56 811.002 Q1355.96 811.002 1361.55 815.701 Q1367.14 820.4 1367.14 828.259 Q1367.14 831.986 1365.72 835.348 Q1364.35 838.67 1360.66 843.207 Q1359.65 844.382 1354.22 850.012 Q1348.79 855.603 1338.91 865.689 Z" fill="#000000" fill-rule="nonzero" fill-opacity="1" /><polyline clip-path="url(#clip153)" style="stroke:#000000; stroke-linecap:round; stroke-linejoin:round; stroke-width:4; stroke-opacity:1; fill:none" points="508.346,1552.76 508.346,1363.97 "/>
<polyline clip-path="url(#clip153)" style="stroke:#000000; stroke-linecap:round; stroke-linejoin:round; stroke-width:4; stroke-opacity:1; fill:none" points="47.2441,1363.97 508.346,1363.97 "/>
<polyline clip-path="url(#clip153)" style="stroke:#000000; stroke-linecap:round; stroke-linejoin:round; stroke-width:4; stroke-opacity:1; fill:none" points="47.2441,1552.76 47.2441,1363.97 "/>
<polyline clip-path="url(#clip153)" style="stroke:#000000; stroke-linecap:round; stroke-linejoin:round; stroke-width:3; stroke-opacity:1; fill:none" points="508.346,1535 510.652,1519.47 512.957,1526.46 515.263,1538.51 517.569,1551.09 519.874,1556.65 522.18,1538.46 524.485,1524.23 526.791,1508.89 529.096,1490.23 531.402,1484.72 533.707,1478.89 536.013,1459.41 538.318,1444.98 540.624,1497.61 542.929,1514.67 545.235,1509.75 547.54,1508.14 549.846,1549.18 552.151,1582.67 554.457,1569.57 556.762,1553.38 559.068,1546.23 561.373,1581.17 563.679,1566.09 565.984,1507.97 568.29,1530.43 570.595,1516.8 572.901,1511 575.206,1491.99 577.512,1485.39 579.817,1500.3 582.123,1479.64 584.428,1476.68 586.734,1487.6 589.039,1496.67 591.345,1481.51 593.65,1464.39 595.956,1491.25 598.261,1480.03 600.567,1472.91 602.872,1450.86 605.178,1480.47 607.483,1468.28 609.789,1468.42 612.094,1435.47 614.4,1436.16 616.706,1419.3 619.011,1429.34 621.317,1413.19 623.622,1436.04 625.928,1466.1 628.233,1461.05 630.539,1452.5 632.844,1437.05 635.15,1458.67 637.455,1442.27 639.761,1440.54 642.066,1409.47 644.372,1385.28 646.677,1389.37 648.983,1385.05 651.288,1385.31 653.594,1360.83 655.899,1396.38 658.205,1412.07 660.51,1430.49 662.816,1442.78 665.121,1459.41 667.427,1446.58 669.732,1413.12 672.038,1413.05 674.343,1357.92 676.649,1342.66 678.954,1347.92 681.26,1370.42 683.565,1358.3 685.871,1365.56 688.176,1341.9 690.482,1326.08 692.787,1365.48 695.093,1392.86 697.398,1387.61 699.704,1366.03 702.009,1369.27 704.315,1401.44 706.62,1412.98 708.926,1420.49 711.231,1435.45 713.537,1444.72 715.843,1422.85 718.148,1407.59 720.454,1395.07 722.759,1373.34 725.065,1406.58 727.37,1446.8 729.676,1470.18 731.981,1472.01 734.287,1483.35 736.592,1484.43 738.898,1474.7 741.203,1485.93 743.509,1472.97 745.814,1455.54 748.12,1422.58 750.425,1406.55 752.731,1391.43 755.036,1394.15 757.342,1386.27 759.647,1383.36 761.953,1417.85 764.258,1392.3 766.564,1394.64 768.869,1405.18 771.175,1415.26 773.48,1432.2 775.786,1425.68 778.091,1442.55 780.397,1423.86 782.702,1422.03 785.008,1429.19 787.313,1442.07 789.619,1430.41 791.924,1459.74 794.23,1472.77 796.535,1503.82 798.841,1490.23 801.146,1495.63 803.452,1518.45 805.757,1542.13 808.063,1565.68 810.369,1597.44 812.674,1617.38 814.98,1650.4 817.285,1683.81 819.591,1689.24 821.896,1696.22 824.202,1719.79 826.507,1697.99 828.813,1728.28 831.118,1668.2 833.424,1670.45 835.729,1673.71 838.035,1662.61 840.34,1647.04 842.646,1667.64 844.951,1671.87 847.257,1692.31 849.562,1674.5 851.868,1675.21 854.173,1675.78 856.479,1686.94 858.784,1675.28 861.09,1645.6 863.395,1642.22 865.701,1636.19 868.006,1625.57 870.312,1597.52 872.617,1546.33 874.923,1574.2 877.228,1563.3 879.534,1538.37 881.839,1502.02 884.145,1502.33 886.45,1526.46 888.756,1468.67 891.061,1468.58 893.367,1502.97 895.672,1478.85 897.978,1477.15 900.283,1493.92 902.589,1492.94 904.894,1483.29 907.2,1523.82 909.506,1527.14 911.811,1493.95 914.117,1506.16 916.422,1524.02 918.728,1525.9 921.033,1487.76 923.339,1521.63 925.644,1541.41 927.95,1554.32 930.255,1579.39 932.561,1559.39 934.866,1537.97 937.172,1529.05 939.477,1547.15 941.783,1582.94 944.088,1551.2 946.394,1549.36 948.699,1576.94 951.005,1580.11 953.31,1552.73 955.616,1560.17 957.921,1567.71 960.227,1561 962.532,1547.91 964.838,1575.21 967.143,1561.2 969.449,1558.49 971.754,1557.99 974.06,1565.77 976.365,1575.28 978.671,1560.96 980.976,1549.16 983.282,1546.06 985.587,1530.81 987.893,1503.78 990.198,1506.68 992.504,1501.69 994.809,1486.34 997.115,1505.53 999.42,1486.78 1001.73,1468.12 1004.03,1465.14 1006.34,1441.78 1008.64,1441.54 1010.95,1419.43 1013.25,1402.49 1015.56,1379.04 1017.86,1365.4 1020.17,1371.34 1022.48,1372.7 1024.78,1375.15 1027.09,1362.2 1029.39,1321.88 1031.7,1326.69 1034,1326.96 1036.31,1302.89 1038.61,1312.96 1040.92,1334.64 1043.23,1354.38 1045.53,1384.84 1047.84,1365.03 1050.14,1372.05 1052.45,1358.94 1054.75,1329.87 1057.06,1340.2 1059.36,1332.85 1061.67,1288.71 1063.97,1301.95 1066.28,1296.47 1068.59,1291.25 1070.89,1313.59 1073.2,1353.79 1075.5,1369.53 1077.81,1352.48 1080.11,1307.19 1082.42,1326.76 1084.72,1326.29 1087.03,1347.41 1089.34,1317.34 1091.64,1321.18 1093.95,1311.7 1096.25,1311.53 1098.56,1323.78 1100.86,1287.23 1103.17,1303.24 1105.47,1303.25 1107.78,1279.71 1110.09,1310.23 1112.39,1298.92 1114.7,1291.72 1117,1267.26 1119.31,1259.58 1121.61,1251.43 1123.92,1251.2 1126.22,1220.39 1128.53,1207.1 1130.83,1228.68 1133.14,1202.51 1135.45,1165.21 1137.75,1194.76 1140.06,1231.86 1142.36,1243.31 1144.67,1280.79 1146.97,1315.42 1149.28,1277.16 1151.58,1268.69 1153.89,1271.83 1156.2,1299.22 1158.5,1282.13 1160.81,1296.34 1163.11,1272.95 1165.42,1265.98 1167.72,1232.22 1170.03,1261.71 1172.33,1277.45 1174.64,1250.82 1176.94,1259.17 1179.25,1252.23 1181.56,1222.68 1183.86,1265.22 1186.17,1275.23 1188.47,1238.9 1190.78,1233.82 1193.08,1269.89 1195.39,1252.07 1197.69,1262.17 1200,1270.02 1202.31,1278.57 1204.61,1268.12 1206.92,1264.6 1209.22,1258.31 1211.53,1261.3 1213.83,1267.12 1216.14,1252.11 1218.44,1226.45 1220.75,1234.51 1223.06,1276.47 1225.36,1300.37 1227.67,1315.11 1229.97,1317.98 1232.28,1351.33 1234.58,1363.47 1236.89,1354.36 "/>
<polyline clip-path="url(#clip153)" style="stroke:#000000; stroke-linecap:round; stroke-linejoin:round; stroke-width:4; stroke-opacity:1; fill:none" stroke-dasharray="16, 10" points="-2258.27,923.472 4658.27,923.472 "/>
<path clip-path="url(#clip150)" d="M488.555 1378.37 L480.627 1399.87 L496.512 1399.87 L488.555 1378.37 M485.256 1372.61 L491.882 1372.61 L508.346 1415.81 L502.27 1415.81 L498.335 1404.73 L478.862 1404.73 L474.926 1415.81 L468.763 1415.81 L485.256 1372.61 Z" fill="#000000" fill-rule="nonzero" fill-opacity="1" /><path clip-path="url(#clip150)" d="M35.4965 929.997 L34.2233 923.313 Q32.9213 916.455 27.7708 916.455 Q23.8935 916.455 22.1285 919.638 Q19.9005 923.631 19.9005 928.897 Q19.9005 935.263 22.0706 938.301 Q24.2697 941.397 27.7708 941.397 Q31.6481 941.397 33.7314 935.234 L35.4965 929.997 M38.4768 921.143 L41.3413 912.665 L46.0867 912.665 L40.155 930.228 L41.3124 936.565 Q41.5728 937.983 42.5856 939.169 Q43.7719 940.558 44.6978 940.558 L47.2441 940.558 L47.2441 945.072 L44.0612 945.072 Q41.3413 945.072 38.9108 942.642 Q37.7245 941.426 37.2326 938.88 Q35.9016 942.092 33.1817 944.609 Q31.9085 945.796 27.7708 945.796 Q20.9711 945.796 17.6725 941.397 Q14.2871 936.855 14.2871 928.897 Q14.2871 920.391 17.9618 916.398 Q22.0417 911.942 27.7708 911.942 Q36.7696 911.942 38.4768 921.143 Z" fill="#000000" fill-rule="nonzero" fill-opacity="1" /><path clip-path="url(#clip150)" d="M281.427 1533.89 Q282.468 1535.28 285.593 1535.28 L288.168 1535.28 L288.168 1539.8 L284.957 1539.8 Q279.748 1539.8 277.376 1537.02 Q275.003 1534.18 275.003 1528.05 L275.003 1512.71 L262.85 1512.71 L262.85 1507.39 L292.74 1507.39 L292.74 1512.71 L280.443 1512.71 L280.443 1528.37 Q280.443 1532.56 281.427 1533.89 Z" fill="#000000" fill-rule="nonzero" fill-opacity="1" /></svg>
