<?xml version="1.0" encoding="utf-8"?>
<svg xmlns="http://www.w3.org/2000/svg" xmlns:xlink="http://www.w3.org/1999/xlink" width="600" height="400" viewBox="0 0 2400 1600">
<defs>
  <clipPath id="clip480">
    <rect x="0" y="0" width="2400" height="1600"/>
  </clipPath>
</defs>
<path clip-path="url(#clip480)" d="M0 1600 L2400 1600 L2400 0 L0 0  Z" fill="#ffffff" fill-rule="evenodd" fill-opacity="1"/>
<defs>
  <clipPath id="clip481">
    <rect x="480" y="0" width="1681" height="1600"/>
  </clipPath>
</defs>
<path clip-path="url(#clip480)" d="M156.598 1486.45 L2352.76 1486.45 L2352.76 47.2441 L156.598 47.2441  Z" fill="#ffffff" fill-rule="evenodd" fill-opacity="1"/>
<defs>
  <clipPath id="clip482">
    <rect x="156" y="47" width="2197" height="1440"/>
  </clipPath>
</defs>
<polyline clip-path="url(#clip482)" style="stroke:#000000; stroke-linecap:round; stroke-linejoin:round; stroke-width:2; stroke-opacity:0.1; fill:none" points="218.754,1486.45 218.754,47.2441 "/>
<polyline clip-path="url(#clip482)" style="stroke:#000000; stroke-linecap:round; stroke-linejoin:round; stroke-width:2; stroke-opacity:0.1; fill:none" points="650.388,1486.45 650.388,47.2441 "/>
<polyline clip-path="url(#clip482)" style="stroke:#000000; stroke-linecap:round; stroke-linejoin:round; stroke-width:2; stroke-opacity:0.1; fill:none" points="1082.02,1486.45 1082.02,47.2441 "/>
<polyline clip-path="url(#clip482)" style="stroke:#000000; stroke-linecap:round; stroke-linejoin:round; stroke-width:2; stroke-opacity:0.1; fill:none" points="1513.66,1486.45 1513.66,47.2441 "/>
<polyline clip-path="url(#clip482)" style="stroke:#000000; stroke-linecap:round; stroke-linejoin:round; stroke-width:2; stroke-opacity:0.1; fill:none" points="1945.29,1486.45 1945.29,47.2441 "/>
<polyline clip-path="url(#clip482)" style="stroke:#000000; stroke-linecap:round; stroke-linejoin:round; stroke-width:2; stroke-opacity:0.1; fill:none" points="156.598,1435.62 2352.76,1435.62 "/>
<polyline clip-path="url(#clip482)" style="stroke:#000000; stroke-linecap:round; stroke-linejoin:round; stroke-width:2; stroke-opacity:0.1; fill:none" points="156.598,1222.59 2352.76,1222.59 "/>
<polyline clip-path="url(#clip482)" style="stroke:#000000; stroke-linecap:round; stroke-linejoin:round; stroke-width:2; stroke-opacity:0.1; fill:none" points="156.598,1009.55 2352.76,1009.55 "/>
<polyline clip-path="url(#clip482)" style="stroke:#000000; stroke-linecap:round; stroke-linejoin:round; stroke-width:2; stroke-opacity:0.1; fill:none" points="156.598,796.518 2352.76,796.518 "/>
<polyline clip-path="url(#clip482)" style="stroke:#000000; stroke-linecap:round; stroke-linejoin:round; stroke-width:2; stroke-opacity:0.1; fill:none" points="156.598,583.483 2352.76,583.483 "/>
<polyline clip-path="url(#clip482)" style="stroke:#000000; stroke-linecap:round; stroke-linejoin:round; stroke-width:2; stroke-opacity:0.1; fill:none" points="156.598,370.447 2352.76,370.447 "/>
<polyline clip-path="url(#clip482)" style="stroke:#000000; stroke-linecap:round; stroke-linejoin:round; stroke-width:2; stroke-opacity:0.1; fill:none" points="156.598,157.412 2352.76,157.412 "/>
<polyline clip-path="url(#clip480)" style="stroke:#000000; stroke-linecap:round; stroke-linejoin:round; stroke-width:4; stroke-opacity:1; fill:none" points="156.598,1486.45 2352.76,1486.45 "/>
<polyline clip-path="url(#clip480)" style="stroke:#000000; stroke-linecap:round; stroke-linejoin:round; stroke-width:4; stroke-opacity:1; fill:none" points="218.754,1486.45 218.754,1467.55 "/>
<polyline clip-path="url(#clip480)" style="stroke:#000000; stroke-linecap:round; stroke-linejoin:round; stroke-width:4; stroke-opacity:1; fill:none" points="650.388,1486.45 650.388,1467.55 "/>
<polyline clip-path="url(#clip480)" style="stroke:#000000; stroke-linecap:round; stroke-linejoin:round; stroke-width:4; stroke-opacity:1; fill:none" points="1082.02,1486.45 1082.02,1467.55 "/>
<polyline clip-path="url(#clip480)" style="stroke:#000000; stroke-linecap:round; stroke-linejoin:round; stroke-width:4; stroke-opacity:1; fill:none" points="1513.66,1486.45 1513.66,1467.55 "/>
<polyline clip-path="url(#clip480)" style="stroke:#000000; stroke-linecap:round; stroke-linejoin:round; stroke-width:4; stroke-opacity:1; fill:none" points="1945.29,1486.45 1945.29,1467.55 "/>
<path clip-path="url(#clip480)" d="M181.057 1517.37 Q177.446 1517.37 175.617 1520.93 Q173.812 1524.47 173.812 1531.6 Q173.812 1538.71 175.617 1542.27 Q177.446 1545.82 181.057 1545.82 Q184.691 1545.82 186.497 1542.27 Q188.326 1538.71 188.326 1531.6 Q188.326 1524.47 186.497 1520.93 Q184.691 1517.37 181.057 1517.37 M181.057 1513.66 Q186.867 1513.66 189.923 1518.27 Q193.001 1522.85 193.001 1531.6 Q193.001 1540.33 189.923 1544.94 Q186.867 1549.52 181.057 1549.52 Q175.247 1549.52 172.168 1544.94 Q169.113 1540.33 169.113 1531.6 Q169.113 1522.85 172.168 1518.27 Q175.247 1513.66 181.057 1513.66 Z" fill="#000000" fill-rule="nonzero" fill-opacity="1" /><path clip-path="url(#clip480)" d="M201.219 1542.97 L206.103 1542.97 L206.103 1548.85 L201.219 1548.85 L201.219 1542.97 Z" fill="#000000" fill-rule="nonzero" fill-opacity="1" /><path clip-path="url(#clip480)" d="M226.288 1517.37 Q222.677 1517.37 220.849 1520.93 Q219.043 1524.47 219.043 1531.6 Q219.043 1538.71 220.849 1542.27 Q222.677 1545.82 226.288 1545.82 Q229.923 1545.82 231.728 1542.27 Q233.557 1538.71 233.557 1531.6 Q233.557 1524.47 231.728 1520.93 Q229.923 1517.37 226.288 1517.37 M226.288 1513.66 Q232.098 1513.66 235.154 1518.27 Q238.233 1522.85 238.233 1531.6 Q238.233 1540.33 235.154 1544.94 Q232.098 1549.52 226.288 1549.52 Q220.478 1549.52 217.399 1544.94 Q214.344 1540.33 214.344 1531.6 Q214.344 1522.85 217.399 1518.27 Q220.478 1513.66 226.288 1513.66 Z" fill="#000000" fill-rule="nonzero" fill-opacity="1" /><path clip-path="url(#clip480)" d="M256.45 1517.37 Q252.839 1517.37 251.01 1520.93 Q249.205 1524.47 249.205 1531.6 Q249.205 1538.71 251.01 1542.27 Q252.839 1545.82 256.45 1545.82 Q260.084 1545.82 261.89 1542.27 Q263.719 1538.71 263.719 1531.6 Q263.719 1524.47 261.89 1520.93 Q260.084 1517.37 256.45 1517.37 M256.45 1513.66 Q262.26 1513.66 265.316 1518.27 Q268.395 1522.85 268.395 1531.6 Q268.395 1540.33 265.316 1544.94 Q262.26 1549.52 256.45 1549.52 Q250.64 1549.52 247.561 1544.94 Q244.506 1540.33 244.506 1531.6 Q244.506 1522.85 247.561 1518.27 Q250.64 1513.66 256.45 1513.66 Z" fill="#000000" fill-rule="nonzero" fill-opacity="1" /><path clip-path="url(#clip480)" d="M613.016 1517.37 Q609.405 1517.37 607.576 1520.93 Q605.771 1524.47 605.771 1531.6 Q605.771 1538.71 607.576 1542.27 Q609.405 1545.82 613.016 1545.82 Q616.65 1545.82 618.456 1542.27 Q620.284 1538.71 620.284 1531.6 Q620.284 1524.47 618.456 1520.93 Q616.65 1517.37 613.016 1517.37 M613.016 1513.66 Q618.826 1513.66 621.882 1518.27 Q624.96 1522.85 624.96 1531.6 Q624.96 1540.33 621.882 1544.94 Q618.826 1549.52 613.016 1549.52 Q607.206 1549.52 604.127 1544.94 Q601.072 1540.33 601.072 1531.6 Q601.072 1522.85 604.127 1518.27 Q607.206 1513.66 613.016 1513.66 Z" fill="#000000" fill-rule="nonzero" fill-opacity="1" /><path clip-path="url(#clip480)" d="M633.178 1542.97 L638.062 1542.97 L638.062 1548.85 L633.178 1548.85 L633.178 1542.97 Z" fill="#000000" fill-rule="nonzero" fill-opacity="1" /><path clip-path="url(#clip480)" d="M658.247 1517.37 Q654.636 1517.37 652.807 1520.93 Q651.002 1524.47 651.002 1531.6 Q651.002 1538.71 652.807 1542.27 Q654.636 1545.82 658.247 1545.82 Q661.881 1545.82 663.687 1542.27 Q665.516 1538.71 665.516 1531.6 Q665.516 1524.47 663.687 1520.93 Q661.881 1517.37 658.247 1517.37 M658.247 1513.66 Q664.057 1513.66 667.113 1518.27 Q670.192 1522.85 670.192 1531.6 Q670.192 1540.33 667.113 1544.94 Q664.057 1549.52 658.247 1549.52 Q652.437 1549.52 649.358 1544.94 Q646.303 1540.33 646.303 1531.6 Q646.303 1522.85 649.358 1518.27 Q652.437 1513.66 658.247 1513.66 Z" fill="#000000" fill-rule="nonzero" fill-opacity="1" /><path clip-path="url(#clip480)" d="M692.576 1530.21 Q695.932 1530.93 697.807 1533.2 Q699.705 1535.47 699.705 1538.8 Q699.705 1543.92 696.187 1546.72 Q692.668 1549.52 686.187 1549.52 Q684.011 1549.52 681.696 1549.08 Q679.404 1548.66 676.951 1547.81 L676.951 1543.29 Q678.895 1544.43 681.21 1545.01 Q683.525 1545.58 686.048 1545.58 Q690.446 1545.58 692.738 1543.85 Q695.053 1542.11 695.053 1538.8 Q695.053 1535.75 692.9 1534.03 Q690.77 1532.3 686.951 1532.3 L682.923 1532.3 L682.923 1528.45 L687.136 1528.45 Q690.585 1528.45 692.414 1527.09 Q694.242 1525.7 694.242 1523.11 Q694.242 1520.45 692.344 1519.03 Q690.469 1517.6 686.951 1517.6 Q685.029 1517.6 682.83 1518.01 Q680.631 1518.43 677.992 1519.31 L677.992 1515.14 Q680.654 1514.4 682.969 1514.03 Q685.307 1513.66 687.367 1513.66 Q692.691 1513.66 695.793 1516.09 Q698.895 1518.5 698.895 1522.62 Q698.895 1525.49 697.252 1527.48 Q695.608 1529.45 692.576 1530.21 Z" fill="#000000" fill-rule="nonzero" fill-opacity="1" /><path clip-path="url(#clip480)" d="M1044.25 1517.37 Q1040.63 1517.37 1038.81 1520.93 Q1037 1524.47 1037 1531.6 Q1037 1538.71 1038.81 1542.27 Q1040.63 1545.82 1044.25 1545.82 Q1047.88 1545.82 1049.69 1542.27 Q1051.51 1538.71 1051.51 1531.6 Q1051.51 1524.47 1049.69 1520.93 Q1047.88 1517.37 1044.25 1517.37 M1044.25 1513.66 Q1050.06 1513.66 1053.11 1518.27 Q1056.19 1522.85 1056.19 1531.6 Q1056.19 1540.33 1053.11 1544.94 Q1050.06 1549.52 1044.25 1549.52 Q1038.44 1549.52 1035.36 1544.94 Q1032.3 1540.33 1032.3 1531.6 Q1032.3 1522.85 1035.36 1518.27 Q1038.44 1513.66 1044.25 1513.66 Z" fill="#000000" fill-rule="nonzero" fill-opacity="1" /><path clip-path="url(#clip480)" d="M1064.41 1542.97 L1069.29 1542.97 L1069.29 1548.85 L1064.41 1548.85 L1064.41 1542.97 Z" fill="#000000" fill-rule="nonzero" fill-opacity="1" /><path clip-path="url(#clip480)" d="M1089.48 1517.37 Q1085.87 1517.37 1084.04 1520.93 Q1082.23 1524.47 1082.23 1531.6 Q1082.23 1538.71 1084.04 1542.27 Q1085.87 1545.82 1089.48 1545.82 Q1093.11 1545.82 1094.92 1542.27 Q1096.75 1538.71 1096.75 1531.6 Q1096.75 1524.47 1094.92 1520.93 Q1093.11 1517.37 1089.48 1517.37 M1089.48 1513.66 Q1095.29 1513.66 1098.34 1518.27 Q1101.42 1522.85 1101.42 1531.6 Q1101.42 1540.33 1098.34 1544.94 Q1095.29 1549.52 1089.48 1549.52 Q1083.67 1549.52 1080.59 1544.94 Q1077.53 1540.33 1077.53 1531.6 Q1077.53 1522.85 1080.59 1518.27 Q1083.67 1513.66 1089.48 1513.66 Z" fill="#000000" fill-rule="nonzero" fill-opacity="1" /><path clip-path="url(#clip480)" d="M1120.22 1529.7 Q1117.07 1529.7 1115.22 1531.86 Q1113.39 1534.01 1113.39 1537.76 Q1113.39 1541.49 1115.22 1543.66 Q1117.07 1545.82 1120.22 1545.82 Q1123.37 1545.82 1125.19 1543.66 Q1127.05 1541.49 1127.05 1537.76 Q1127.05 1534.01 1125.19 1531.86 Q1123.37 1529.7 1120.22 1529.7 M1129.5 1515.05 L1129.5 1519.31 Q1127.74 1518.48 1125.93 1518.04 Q1124.15 1517.6 1122.39 1517.6 Q1117.76 1517.6 1115.31 1520.72 Q1112.88 1523.85 1112.53 1530.17 Q1113.9 1528.15 1115.96 1527.09 Q1118.02 1526 1120.5 1526 Q1125.7 1526 1128.71 1529.17 Q1131.75 1532.32 1131.75 1537.76 Q1131.75 1543.08 1128.6 1546.3 Q1125.45 1549.52 1120.22 1549.52 Q1114.22 1549.52 1111.05 1544.94 Q1107.88 1540.33 1107.88 1531.6 Q1107.88 1523.41 1111.77 1518.55 Q1115.66 1513.66 1122.21 1513.66 Q1123.97 1513.66 1125.75 1514.01 Q1127.56 1514.36 1129.5 1515.05 Z" fill="#000000" fill-rule="nonzero" fill-opacity="1" /><path clip-path="url(#clip480)" d="M1476.05 1517.37 Q1472.44 1517.37 1470.61 1520.93 Q1468.81 1524.47 1468.81 1531.6 Q1468.81 1538.71 1470.61 1542.27 Q1472.44 1545.82 1476.05 1545.82 Q1479.69 1545.82 1481.49 1542.27 Q1483.32 1538.71 1483.32 1531.6 Q1483.32 1524.47 1481.49 1520.93 Q1479.69 1517.37 1476.05 1517.37 M1476.05 1513.66 Q1481.86 1513.66 1484.92 1518.27 Q1488 1522.85 1488 1531.6 Q1488 1540.33 1484.92 1544.94 Q1481.86 1549.52 1476.05 1549.52 Q1470.24 1549.52 1467.17 1544.94 Q1464.11 1540.33 1464.11 1531.6 Q1464.11 1522.85 1467.17 1518.27 Q1470.24 1513.66 1476.05 1513.66 Z" fill="#000000" fill-rule="nonzero" fill-opacity="1" /><path clip-path="url(#clip480)" d="M1496.22 1542.97 L1501.1 1542.97 L1501.1 1548.85 L1496.22 1548.85 L1496.22 1542.97 Z" fill="#000000" fill-rule="nonzero" fill-opacity="1" /><path clip-path="url(#clip480)" d="M1521.29 1517.37 Q1517.67 1517.37 1515.85 1520.93 Q1514.04 1524.47 1514.04 1531.6 Q1514.04 1538.71 1515.85 1542.27 Q1517.67 1545.82 1521.29 1545.82 Q1524.92 1545.82 1526.72 1542.27 Q1528.55 1538.71 1528.55 1531.6 Q1528.55 1524.47 1526.72 1520.93 Q1524.92 1517.37 1521.29 1517.37 M1521.29 1513.66 Q1527.1 1513.66 1530.15 1518.27 Q1533.23 1522.85 1533.23 1531.6 Q1533.23 1540.33 1530.15 1544.94 Q1527.1 1549.52 1521.29 1549.52 Q1515.48 1549.52 1512.4 1544.94 Q1509.34 1540.33 1509.34 1531.6 Q1509.34 1522.85 1512.4 1518.27 Q1515.48 1513.66 1521.29 1513.66 Z" fill="#000000" fill-rule="nonzero" fill-opacity="1" /><path clip-path="url(#clip480)" d="M1541.59 1548.13 L1541.59 1543.87 Q1543.35 1544.7 1545.15 1545.14 Q1546.96 1545.58 1548.69 1545.58 Q1553.32 1545.58 1555.75 1542.48 Q1558.21 1539.36 1558.55 1533.01 Q1557.21 1535.01 1555.15 1536.07 Q1553.09 1537.13 1550.59 1537.13 Q1545.41 1537.13 1542.37 1534.01 Q1539.36 1530.86 1539.36 1525.42 Q1539.36 1520.1 1542.51 1516.88 Q1545.66 1513.66 1550.89 1513.66 Q1556.89 1513.66 1560.03 1518.27 Q1563.21 1522.85 1563.21 1531.6 Q1563.21 1539.77 1559.32 1544.66 Q1555.45 1549.52 1548.9 1549.52 Q1547.14 1549.52 1545.34 1549.17 Q1543.53 1548.82 1541.59 1548.13 M1550.89 1533.48 Q1554.04 1533.48 1555.87 1531.32 Q1557.72 1529.17 1557.72 1525.42 Q1557.72 1521.7 1555.87 1519.54 Q1554.04 1517.37 1550.89 1517.37 Q1547.74 1517.37 1545.89 1519.54 Q1544.06 1521.7 1544.06 1525.42 Q1544.06 1529.17 1545.89 1531.32 Q1547.74 1533.48 1550.89 1533.48 Z" fill="#000000" fill-rule="nonzero" fill-opacity="1" /><path clip-path="url(#clip480)" d="M1908.39 1517.37 Q1904.78 1517.37 1902.95 1520.93 Q1901.15 1524.47 1901.15 1531.6 Q1901.15 1538.71 1902.95 1542.27 Q1904.78 1545.82 1908.39 1545.82 Q1912.03 1545.82 1913.83 1542.27 Q1915.66 1538.71 1915.66 1531.6 Q1915.66 1524.47 1913.83 1520.93 Q1912.03 1517.37 1908.39 1517.37 M1908.39 1513.66 Q1914.2 1513.66 1917.26 1518.27 Q1920.34 1522.85 1920.34 1531.6 Q1920.34 1540.33 1917.26 1544.94 Q1914.2 1549.52 1908.39 1549.52 Q1902.58 1549.52 1899.51 1544.94 Q1896.45 1540.33 1896.45 1531.6 Q1896.45 1522.85 1899.51 1518.27 Q1902.58 1513.66 1908.39 1513.66 Z" fill="#000000" fill-rule="nonzero" fill-opacity="1" /><path clip-path="url(#clip480)" d="M1928.56 1542.97 L1933.44 1542.97 L1933.44 1548.85 L1928.56 1548.85 L1928.56 1542.97 Z" fill="#000000" fill-rule="nonzero" fill-opacity="1" /><path clip-path="url(#clip480)" d="M1944.44 1544.91 L1952.08 1544.91 L1952.08 1518.55 L1943.76 1520.21 L1943.76 1515.95 L1952.03 1514.29 L1956.7 1514.29 L1956.7 1544.91 L1964.34 1544.91 L1964.34 1548.85 L1944.44 1548.85 L1944.44 1544.91 Z" fill="#000000" fill-rule="nonzero" fill-opacity="1" /><path clip-path="url(#clip480)" d="M1977.82 1544.91 L1994.14 1544.91 L1994.14 1548.85 L1972.19 1548.85 L1972.19 1544.91 Q1974.85 1542.16 1979.44 1537.53 Q1984.04 1532.88 1985.22 1531.53 Q1987.47 1529.01 1988.35 1527.27 Q1989.25 1525.51 1989.25 1523.82 Q1989.25 1521.07 1987.31 1519.33 Q1985.39 1517.6 1982.28 1517.6 Q1980.08 1517.6 1977.63 1518.36 Q1975.2 1519.13 1972.42 1520.68 L1972.42 1515.95 Q1975.25 1514.82 1977.7 1514.24 Q1980.15 1513.66 1982.19 1513.66 Q1987.56 1513.66 1990.76 1516.35 Q1993.95 1519.03 1993.95 1523.52 Q1993.95 1525.65 1993.14 1527.57 Q1992.35 1529.47 1990.25 1532.07 Q1989.67 1532.74 1986.57 1535.95 Q1983.46 1539.15 1977.82 1544.91 Z" fill="#000000" fill-rule="nonzero" fill-opacity="1" /><polyline clip-path="url(#clip480)" style="stroke:#000000; stroke-linecap:round; stroke-linejoin:round; stroke-width:4; stroke-opacity:1; fill:none" points="156.598,1486.45 156.598,47.2441 "/>
<polyline clip-path="url(#clip480)" style="stroke:#000000; stroke-linecap:round; stroke-linejoin:round; stroke-width:4; stroke-opacity:1; fill:none" points="156.598,1435.62 175.496,1435.62 "/>
<polyline clip-path="url(#clip480)" style="stroke:#000000; stroke-linecap:round; stroke-linejoin:round; stroke-width:4; stroke-opacity:1; fill:none" points="156.598,1222.59 175.496,1222.59 "/>
<polyline clip-path="url(#clip480)" style="stroke:#000000; stroke-linecap:round; stroke-linejoin:round; stroke-width:4; stroke-opacity:1; fill:none" points="156.598,1009.55 175.496,1009.55 "/>
<polyline clip-path="url(#clip480)" style="stroke:#000000; stroke-linecap:round; stroke-linejoin:round; stroke-width:4; stroke-opacity:1; fill:none" points="156.598,796.518 175.496,796.518 "/>
<polyline clip-path="url(#clip480)" style="stroke:#000000; stroke-linecap:round; stroke-linejoin:round; stroke-width:4; stroke-opacity:1; fill:none" points="156.598,583.483 175.496,583.483 "/>
<polyline clip-path="url(#clip480)" style="stroke:#000000; stroke-linecap:round; stroke-linejoin:round; stroke-width:4; stroke-opacity:1; fill:none" points="156.598,370.447 175.496,370.447 "/>
<polyline clip-path="url(#clip480)" style="stroke:#000000; stroke-linecap:round; stroke-linejoin:round; stroke-width:4; stroke-opacity:1; fill:none" points="156.598,157.412 175.496,157.412 "/>
<path clip-path="url(#clip480)" d="M65.0198 1421.42 Q61.4087 1421.42 59.58 1424.99 Q57.7745 1428.53 57.7745 1435.66 Q57.7745 1442.77 59.58 1446.33 Q61.4087 1449.87 65.0198 1449.87 Q68.6541 1449.87 70.4596 1446.33 Q72.2883 1442.77 72.2883 1435.66 Q72.2883 1428.53 70.4596 1424.99 Q68.6541 1421.42 65.0198 1421.42 M65.0198 1417.72 Q70.83 1417.72 73.8855 1422.33 Q76.9642 1426.91 76.9642 1435.66 Q76.9642 1444.39 73.8855 1448.99 Q70.83 1453.58 65.0198 1453.58 Q59.2097 1453.58 56.131 1448.99 Q53.0754 1444.39 53.0754 1435.66 Q53.0754 1426.91 56.131 1422.33 Q59.2097 1417.72 65.0198 1417.72 Z" fill="#000000" fill-rule="nonzero" fill-opacity="1" /><path clip-path="url(#clip480)" d="M85.1818 1447.02 L90.066 1447.02 L90.066 1452.9 L85.1818 1452.9 L85.1818 1447.02 Z" fill="#000000" fill-rule="nonzero" fill-opacity="1" /><path clip-path="url(#clip480)" d="M104.279 1448.97 L120.598 1448.97 L120.598 1452.9 L98.6539 1452.9 L98.6539 1448.97 Q101.316 1446.21 105.899 1441.58 Q110.506 1436.93 111.686 1435.59 Q113.932 1433.07 114.811 1431.33 Q115.714 1429.57 115.714 1427.88 Q115.714 1425.13 113.77 1423.39 Q111.848 1421.65 108.746 1421.65 Q106.547 1421.65 104.094 1422.42 Q101.663 1423.18 98.8854 1424.73 L98.8854 1420.01 Q101.709 1418.88 104.163 1418.3 Q106.617 1417.72 108.654 1417.72 Q114.024 1417.72 117.219 1420.4 Q120.413 1423.09 120.413 1427.58 Q120.413 1429.71 119.603 1431.63 Q118.816 1433.53 116.709 1436.12 Q116.131 1436.79 113.029 1440.01 Q109.927 1443.21 104.279 1448.97 Z" fill="#000000" fill-rule="nonzero" fill-opacity="1" /><path clip-path="url(#clip480)" d="M64.0708 1208.39 Q60.4597 1208.39 58.631 1211.95 Q56.8254 1215.49 56.8254 1222.62 Q56.8254 1229.73 58.631 1233.29 Q60.4597 1236.84 64.0708 1236.84 Q67.705 1236.84 69.5105 1233.29 Q71.3392 1229.73 71.3392 1222.62 Q71.3392 1215.49 69.5105 1211.95 Q67.705 1208.39 64.0708 1208.39 M64.0708 1204.68 Q69.8809 1204.68 72.9365 1209.29 Q76.0151 1213.87 76.0151 1222.62 Q76.0151 1231.35 72.9365 1235.96 Q69.8809 1240.54 64.0708 1240.54 Q58.2606 1240.54 55.1819 1235.96 Q52.1264 1231.35 52.1264 1222.62 Q52.1264 1213.87 55.1819 1209.29 Q58.2606 1204.68 64.0708 1204.68 Z" fill="#000000" fill-rule="nonzero" fill-opacity="1" /><path clip-path="url(#clip480)" d="M84.2327 1233.99 L89.1169 1233.99 L89.1169 1239.87 L84.2327 1239.87 L84.2327 1233.99 Z" fill="#000000" fill-rule="nonzero" fill-opacity="1" /><path clip-path="url(#clip480)" d="M113.469 1221.23 Q116.825 1221.95 118.7 1224.22 Q120.598 1226.49 120.598 1229.82 Q120.598 1234.94 117.08 1237.74 Q113.561 1240.54 107.08 1240.54 Q104.904 1240.54 102.589 1240.1 Q100.297 1239.68 97.8437 1238.83 L97.8437 1234.31 Q99.7882 1235.45 102.103 1236.03 Q104.418 1236.61 106.941 1236.61 Q111.339 1236.61 113.631 1234.87 Q115.945 1233.13 115.945 1229.82 Q115.945 1226.77 113.793 1225.05 Q111.663 1223.32 107.844 1223.32 L103.816 1223.32 L103.816 1219.48 L108.029 1219.48 Q111.478 1219.48 113.307 1218.11 Q115.135 1216.72 115.135 1214.13 Q115.135 1211.47 113.237 1210.05 Q111.362 1208.62 107.844 1208.62 Q105.922 1208.62 103.723 1209.04 Q101.524 1209.45 98.8854 1210.33 L98.8854 1206.17 Q101.547 1205.42 103.862 1205.05 Q106.2 1204.68 108.26 1204.68 Q113.584 1204.68 116.686 1207.11 Q119.788 1209.52 119.788 1213.64 Q119.788 1216.51 118.145 1218.5 Q116.501 1220.47 113.469 1221.23 Z" fill="#000000" fill-rule="nonzero" fill-opacity="1" /><path clip-path="url(#clip480)" d="M62.9365 995.352 Q59.3254 995.352 57.4967 998.917 Q55.6912 1002.46 55.6912 1009.59 Q55.6912 1016.69 57.4967 1020.26 Q59.3254 1023.8 62.9365 1023.8 Q66.5707 1023.8 68.3763 1020.26 Q70.205 1016.69 70.205 1009.59 Q70.205 1002.46 68.3763 998.917 Q66.5707 995.352 62.9365 995.352 M62.9365 991.649 Q68.7467 991.649 71.8022 996.255 Q74.8809 1000.84 74.8809 1009.59 Q74.8809 1018.32 71.8022 1022.92 Q68.7467 1027.5 62.9365 1027.5 Q57.1264 1027.5 54.0477 1022.92 Q50.9921 1018.32 50.9921 1009.59 Q50.9921 1000.84 54.0477 996.255 Q57.1264 991.649 62.9365 991.649 Z" fill="#000000" fill-rule="nonzero" fill-opacity="1" /><path clip-path="url(#clip480)" d="M83.0984 1020.95 L87.9827 1020.95 L87.9827 1026.83 L83.0984 1026.83 L83.0984 1020.95 Z" fill="#000000" fill-rule="nonzero" fill-opacity="1" /><path clip-path="url(#clip480)" d="M111.015 996.348 L99.2095 1014.8 L111.015 1014.8 L111.015 996.348 M109.788 992.274 L115.668 992.274 L115.668 1014.8 L120.598 1014.8 L120.598 1018.69 L115.668 1018.69 L115.668 1026.83 L111.015 1026.83 L111.015 1018.69 L95.4132 1018.69 L95.4132 1014.17 L109.788 992.274 Z" fill="#000000" fill-rule="nonzero" fill-opacity="1" /><path clip-path="url(#clip480)" d="M64.418 782.317 Q60.8069 782.317 58.9782 785.882 Q57.1726 789.423 57.1726 796.553 Q57.1726 803.659 58.9782 807.224 Q60.8069 810.766 64.418 810.766 Q68.0522 810.766 69.8578 807.224 Q71.6865 803.659 71.6865 796.553 Q71.6865 789.423 69.8578 785.882 Q68.0522 782.317 64.418 782.317 M64.418 778.613 Q70.2281 778.613 73.2837 783.22 Q76.3624 787.803 76.3624 796.553 Q76.3624 805.28 73.2837 809.886 Q70.2281 814.469 64.418 814.469 Q58.6078 814.469 55.5291 809.886 Q52.4736 805.28 52.4736 796.553 Q52.4736 787.803 55.5291 783.22 Q58.6078 778.613 64.418 778.613 Z" fill="#000000" fill-rule="nonzero" fill-opacity="1" /><path clip-path="url(#clip480)" d="M84.5799 807.919 L89.4641 807.919 L89.4641 813.798 L84.5799 813.798 L84.5799 807.919 Z" fill="#000000" fill-rule="nonzero" fill-opacity="1" /><path clip-path="url(#clip480)" d="M99.6956 779.238 L118.052 779.238 L118.052 783.173 L103.978 783.173 L103.978 791.646 Q104.996 791.298 106.015 791.136 Q107.033 790.951 108.052 790.951 Q113.839 790.951 117.219 794.122 Q120.598 797.294 120.598 802.71 Q120.598 808.289 117.126 811.391 Q113.654 814.469 107.334 814.469 Q105.159 814.469 102.89 814.099 Q100.645 813.729 98.2372 812.988 L98.2372 808.289 Q100.321 809.423 102.543 809.979 Q104.765 810.534 107.242 810.534 Q111.246 810.534 113.584 808.428 Q115.922 806.321 115.922 802.71 Q115.922 799.099 113.584 796.993 Q111.246 794.886 107.242 794.886 Q105.367 794.886 103.492 795.303 Q101.64 795.72 99.6956 796.599 L99.6956 779.238 Z" fill="#000000" fill-rule="nonzero" fill-opacity="1" /><path clip-path="url(#clip480)" d="M63.2606 569.281 Q59.6495 569.281 57.8208 572.846 Q56.0152 576.388 56.0152 583.518 Q56.0152 590.624 57.8208 594.189 Q59.6495 597.73 63.2606 597.73 Q66.8948 597.73 68.7004 594.189 Q70.5291 590.624 70.5291 583.518 Q70.5291 576.388 68.7004 572.846 Q66.8948 569.281 63.2606 569.281 M63.2606 565.578 Q69.0707 565.578 72.1263 570.184 Q75.205 574.768 75.205 583.518 Q75.205 592.244 72.1263 596.851 Q69.0707 601.434 63.2606 601.434 Q57.4504 601.434 54.3717 596.851 Q51.3162 592.244 51.3162 583.518 Q51.3162 574.768 54.3717 570.184 Q57.4504 565.578 63.2606 565.578 Z" fill="#000000" fill-rule="nonzero" fill-opacity="1" /><path clip-path="url(#clip480)" d="M83.4225 594.883 L88.3067 594.883 L88.3067 600.763 L83.4225 600.763 L83.4225 594.883 Z" fill="#000000" fill-rule="nonzero" fill-opacity="1" /><path clip-path="url(#clip480)" d="M109.071 581.619 Q105.922 581.619 104.071 583.772 Q102.242 585.925 102.242 589.675 Q102.242 593.402 104.071 595.578 Q105.922 597.73 109.071 597.73 Q112.219 597.73 114.047 595.578 Q115.899 593.402 115.899 589.675 Q115.899 585.925 114.047 583.772 Q112.219 581.619 109.071 581.619 M118.353 566.967 L118.353 571.226 Q116.594 570.393 114.788 569.953 Q113.006 569.513 111.246 569.513 Q106.617 569.513 104.163 572.638 Q101.733 575.763 101.385 582.082 Q102.751 580.068 104.811 579.004 Q106.871 577.916 109.348 577.916 Q114.557 577.916 117.566 581.087 Q120.598 584.235 120.598 589.675 Q120.598 594.999 117.45 598.217 Q114.302 601.434 109.071 601.434 Q103.075 601.434 99.9039 596.851 Q96.7326 592.244 96.7326 583.518 Q96.7326 575.323 100.621 570.462 Q104.51 565.578 111.061 565.578 Q112.82 565.578 114.603 565.925 Q116.408 566.272 118.353 566.967 Z" fill="#000000" fill-rule="nonzero" fill-opacity="1" /><path clip-path="url(#clip480)" d="M64.3254 356.246 Q60.7143 356.246 58.8856 359.811 Q57.0801 363.353 57.0801 370.482 Q57.0801 377.589 58.8856 381.153 Q60.7143 384.695 64.3254 384.695 Q67.9596 384.695 69.7652 381.153 Q71.5939 377.589 71.5939 370.482 Q71.5939 363.353 69.7652 359.811 Q67.9596 356.246 64.3254 356.246 M64.3254 352.542 Q70.1355 352.542 73.1911 357.149 Q76.2698 361.732 76.2698 370.482 Q76.2698 379.209 73.1911 383.815 Q70.1355 388.399 64.3254 388.399 Q58.5152 388.399 55.4365 383.815 Q52.381 379.209 52.381 370.482 Q52.381 361.732 55.4365 357.149 Q58.5152 352.542 64.3254 352.542 Z" fill="#000000" fill-rule="nonzero" fill-opacity="1" /><path clip-path="url(#clip480)" d="M84.4873 381.848 L89.3715 381.848 L89.3715 387.727 L84.4873 387.727 L84.4873 381.848 Z" fill="#000000" fill-rule="nonzero" fill-opacity="1" /><path clip-path="url(#clip480)" d="M98.3761 353.167 L120.598 353.167 L120.598 355.158 L108.052 387.727 L103.168 387.727 L114.973 357.103 L98.3761 357.103 L98.3761 353.167 Z" fill="#000000" fill-rule="nonzero" fill-opacity="1" /><path clip-path="url(#clip480)" d="M63.5152 143.211 Q59.9041 143.211 58.0754 146.776 Q56.2699 150.317 56.2699 157.447 Q56.2699 164.553 58.0754 168.118 Q59.9041 171.66 63.5152 171.66 Q67.1494 171.66 68.955 168.118 Q70.7837 164.553 70.7837 157.447 Q70.7837 150.317 68.955 146.776 Q67.1494 143.211 63.5152 143.211 M63.5152 139.507 Q69.3254 139.507 72.3809 144.114 Q75.4596 148.697 75.4596 157.447 Q75.4596 166.174 72.3809 170.78 Q69.3254 175.363 63.5152 175.363 Q57.7051 175.363 54.6264 170.78 Q51.5708 166.174 51.5708 157.447 Q51.5708 148.697 54.6264 144.114 Q57.7051 139.507 63.5152 139.507 Z" fill="#000000" fill-rule="nonzero" fill-opacity="1" /><path clip-path="url(#clip480)" d="M83.6771 168.812 L88.5614 168.812 L88.5614 174.692 L83.6771 174.692 L83.6771 168.812 Z" fill="#000000" fill-rule="nonzero" fill-opacity="1" /><path clip-path="url(#clip480)" d="M108.746 158.28 Q105.413 158.28 103.492 160.062 Q101.594 161.845 101.594 164.97 Q101.594 168.095 103.492 169.877 Q105.413 171.66 108.746 171.66 Q112.08 171.66 114.001 169.877 Q115.922 168.072 115.922 164.97 Q115.922 161.845 114.001 160.062 Q112.103 158.28 108.746 158.28 M104.071 156.289 Q101.061 155.549 99.3715 153.488 Q97.7048 151.428 97.7048 148.465 Q97.7048 144.322 100.645 141.914 Q103.608 139.507 108.746 139.507 Q113.908 139.507 116.848 141.914 Q119.788 144.322 119.788 148.465 Q119.788 151.428 118.098 153.488 Q116.432 155.549 113.445 156.289 Q116.825 157.076 118.7 159.368 Q120.598 161.66 120.598 164.97 Q120.598 169.993 117.52 172.678 Q114.464 175.363 108.746 175.363 Q103.029 175.363 99.9502 172.678 Q96.8947 169.993 96.8947 164.97 Q96.8947 161.66 98.7928 159.368 Q100.691 157.076 104.071 156.289 M102.358 148.905 Q102.358 151.59 104.024 153.095 Q105.714 154.6 108.746 154.6 Q111.756 154.6 113.445 153.095 Q115.158 151.59 115.158 148.905 Q115.158 146.22 113.445 144.715 Q111.756 143.211 108.746 143.211 Q105.714 143.211 104.024 144.715 Q102.358 146.22 102.358 148.905 Z" fill="#000000" fill-rule="nonzero" fill-opacity="1" /><polyline clip-path="url(#clip482)" style="stroke:#009af9; stroke-linecap:round; stroke-linejoin:round; stroke-width:4; stroke-opacity:1; fill:none" points="218.754,1350.41 233.141,1373.87 247.529,1445.72 261.917,1414.06 276.305,1398.9 290.693,1297.22 305.081,1207.08 319.468,1267.52 333.856,1232.3 348.244,1323.44 362.632,1349.33 377.02,1248.63 391.408,1308.37 405.795,1273.53 420.183,1165.94 434.571,1044.65 448.959,1080.07 463.347,1027.84 477.734,1000.99 492.122,976.909 506.51,981.658 520.898,971.693 535.286,902.215 549.674,951.808 564.061,942.218 578.449,960.046 592.837,947.348 607.225,947.827 621.613,920.466 636.001,963.782 650.388,1018.6 664.776,1090.44 679.164,1195.02 693.552,1152.54 707.94,1088.39 722.328,1045.35 736.715,1076.39 751.103,974.422 765.491,780.568 779.879,791.046 794.267,770.767 808.654,790.46 823.042,742.219 837.43,728.768 851.818,732.835 866.206,746.839 880.594,705.305 894.981,629.045 909.369,593.204 923.757,597.497 938.145,471.273 952.533,488.174 966.921,509.065 981.308,422.966 995.696,572.777 1010.08,542.572 1024.47,591.038 1038.86,519.79 1053.25,414.339 1067.64,371.567 1082.02,440.086 1096.41,417.818 1110.8,373.331 1125.19,368.493 1139.57,432.619 1153.96,329.002 1168.35,319.073 1182.74,270.235 1197.13,262.47 1211.51,271.879 1225.9,243.603 1240.29,311.849 1254.68,249.681 1269.06,276.59 1283.45,415.425 1297.84,444.871 1312.23,444.182 1326.62,474.887 1341,460.334 1355.39,475.981 1369.78,456.639 1384.17,358.69 1398.56,454.709 1412.94,405.555 1427.33,370.85 1441.72,441.9 1456.11,476.239 1470.49,337.156 1484.88,398.901 1499.27,327.377 1513.66,421.054 1528.05,407.552 1542.43,471.084 1556.82,544.583 1571.21,523.273 1585.6,447.093 1599.98,423.065 1614.37,510.823 1628.76,473.244 1643.15,422.537 1657.54,421.277 1671.92,529.752 1686.31,514.383 1700.7,527.264 1715.09,514.052 1729.48,621.468 1743.86,592.009 1758.25,613.709 1772.64,622.332 1787.03,456.779 1801.41,453.599 1815.8,337.421 1830.19,463.666 1844.58,611.924 1858.97,676.211 1873.35,740.118 1887.74,603.095 1902.13,520.06 1916.52,517.693 1930.9,546.266 1945.29,618.1 1959.68,429.309 1974.07,321.652 1988.46,286.39 2002.84,246.861 2017.23,311.015 2031.62,399.701 2046.01,447.922 2060.4,450.412 2074.78,402.048 2089.17,339.683 2103.56,329.742 2117.95,328.043 2132.33,304.681 2146.72,353.614 2161.11,328.903 2175.5,382.503 2189.89,309.771 2204.27,303.871 2218.66,279.92 2233.05,237.158 2247.44,288.034 2261.82,274.333 2276.21,250.888 2290.6,87.9763 "/>
<path clip-path="url(#clip480)" d="M229.803 198.898 L501.85 198.898 L501.85 95.2176 L229.803 95.2176  Z" fill="#ffffff" fill-rule="evenodd" fill-opacity="1"/>
<polyline clip-path="url(#clip480)" style="stroke:#000000; stroke-linecap:round; stroke-linejoin:round; stroke-width:4; stroke-opacity:1; fill:none" points="229.803,198.898 501.85,198.898 501.85,95.2176 229.803,95.2176 229.803,198.898 "/>
<polyline clip-path="url(#clip480)" style="stroke:#009af9; stroke-linecap:round; stroke-linejoin:round; stroke-width:4; stroke-opacity:1; fill:none" points="254.205,147.058 400.616,147.058 "/>
<path clip-path="url(#clip480)" d="M438.86 166.745 Q437.054 171.375 435.342 172.787 Q433.629 174.199 430.758 174.199 L427.355 174.199 L427.355 170.634 L429.855 170.634 Q431.615 170.634 432.587 169.8 Q433.559 168.967 434.74 165.865 L435.504 163.921 L425.018 138.412 L429.531 138.412 L437.633 158.689 L445.735 138.412 L450.249 138.412 L438.86 166.745 Z" fill="#000000" fill-rule="nonzero" fill-opacity="1" /><path clip-path="url(#clip480)" d="M457.54 160.402 L465.179 160.402 L465.179 134.037 L456.869 135.703 L456.869 131.444 L465.133 129.778 L469.809 129.778 L469.809 160.402 L477.448 160.402 L477.448 164.338 L457.54 164.338 L457.54 160.402 Z" fill="#000000" fill-rule="nonzero" fill-opacity="1" /></svg>
